<svg xmlns="http://www.w3.org/2000/svg" viewBox="0 0 369.511 330.023"><path fill="#F8DF21" d="M339.748 148.091c-2.88 0-5.77-.08-8.65.03-1.53.06-2.21-.4-2.72-1.93-7.46-22.6-19.39-42.54-36.07-59.52-23.57-24.01-51.99-38.89-85.32-43.81-29.12-4.3-57.14-.17-83.91 12.2-17.58 8.12-32.91 19.37-46.17 33.43-11.67 12.36-20.93 26.35-28.02 41.8-2.4 5.23-4.38 10.6-6.17 16.05-.44 1.34-1 1.81-2.4 1.79-5.55-.07-11.1-.07-16.65.01-1.64.02-2.13-.24-1.62-2.03 8.11-28.89 22.58-54.1 43.59-75.54 13.21-13.48 28.24-24.46 45.14-32.89 27.32-13.63 56.23-19.26 86.66-17.23 7.34.49 14.61 1.47 21.82 2.98 35.55 7.44 65.66 24.54 90.5 50.97 19.2 20.44 32.44 44.27 40.14 71.2.71 2.47.7 2.48-1.92 2.49h-8.23z"/><path fill="#F8DF21" d="M.908 146.611v-8.97c.01-44.98.03-89.96-.03-134.94 0-2.04.43-2.65 2.57-2.65 53.99.07 107.98.07 161.97.08 1.5 0 3.02-.2 4.84.28-41.24 3.72-77.3 18.93-108.21 45.99-30.8 26.96-50.63 60.7-61.14 100.21zM368.878 145.581c-9.35-35.63-26.72-66.59-53.09-92.35-19.86-19.4-42.94-33.72-69.12-42.95-13.68-4.82-44.05-10.9-50.36-10.23.06.49.44.49.78.46 7.6-.8 15.22-.39 22.83-.39 48.51-.05 97.02-.02 145.53-.02 3.43 0 3.42.01 3.42 3.44.01 47.07.01 94.13.02 141.2-.01.28-.01.56-.01.84zM185.938 61.551c39.71.78 72.56 16.22 98.39 46.41 9.71 11.35 17 24.2 22.34 38.16.64 1.68.39 2.04-1.39 2.01-6.56-.09-13.12-.07-19.68.01-1.51.02-2.24-.48-2.91-1.85-10.52-21.42-26.05-38.21-47.33-49.08-31.82-16.25-64.18-16.74-96.37-1.13-21.91 10.62-37.76 27.6-48.6 49.28-1.06 2.12-2.19 2.86-4.54 2.79-6.41-.18-12.83-.12-19.24-.04-1.76.02-1.89-.5-1.29-1.96 19.67-47.56 54.44-76.05 105.72-83.65 4.92-.72 9.9-.83 14.9-.95z"/><path fill="#F8DF21" d="M112.468 148.071c5.98-10.01 13.14-18.3 21.99-25.07 40.44-30.93 97.65-20.25 124.35 23.22.31.5 1.1 1.05.58 1.67-.25.31-1.06.21-1.62.21-7.06.01-14.14-.22-21.18.09-3.15.14-4.49-1.99-6.21-3.6-12.62-11.88-27.29-18.93-44.85-18.83-13.19.07-24.9 4.77-35.53 12.39-3.76 2.69-7.25 5.7-10.47 9-.45.46-.82.94-1.6.94-8.33-.02-16.67-.02-25.46-.02zM17.848 225.611c.94.05.82.84.93 1.42 1.65 8.42 3.86 16.69 6.73 24.78 8.53 24.04 21.58 45.29 39.41 63.56 1.2 1.23 1.18 1.85-.05 2.99-3.87 3.55-7.67 7.2-11.41 10.89-1.04 1.03-1.66 1.04-2.69-.03-14.28-14.87-25.96-31.55-34.95-50.11-7.2-14.85-12.47-30.34-15.72-46.53-.23-1.14-.12-1.71 1.05-2.04 5.36-1.55 10.71-3.16 16.06-4.74.21-.06.41-.12.64-.19z"/><path fill="#FBFBFB" d="M33.268 188.621c2.66-6.53 5.13-12.58 7.6-18.63 1.71-4.2 3.41-8.4 5.12-12.6.32-.79.53-1.56 1.72-1.55 5.47.06 10.94.03 16.72.03-.88 2.05-1.63 3.89-2.44 5.7-7.37 16.57-14.78 33.13-22.08 49.73-.75 1.7-1.58 2.38-3.46 2.23-2.44-.19-4.9-.13-7.35-.01-1.24.06-1.75-.43-2.21-1.48-7.9-18.22-15.83-36.44-23.8-54.63-.57-1.31-.35-1.59 1-1.57 4.97.05 9.95.07 14.92-.02 1.15-.02 1.43.55 1.77 1.41 3.77 9.57 7.57 19.13 11.36 28.7.31.73.62 1.45 1.13 2.69zM190.588 212.711c-6.26 0-12.01-.02-17.76.02-1.09.01-1.47-.78-2-1.42-4.67-5.76-9.34-11.53-13.99-17.3-.17-.21-.22-.52-.34-.84-.91.96-.59 1.71-.59 2.38-.03 5.12-.07 10.23.01 15.35.02 1.37-.27 1.9-1.75 1.86-3.82-.1-7.64-.08-11.46-.01-1.24.02-1.77-.19-1.77-1.62.05-17.87.05-35.74.01-53.61 0-1.4.5-1.68 1.75-1.65 3.82.06 7.64.08 11.46-.01 1.43-.03 1.78.42 1.77 1.82-.06 9.58-.03 19.17-.03 28.75v2.08c.14.06.29.11.43.17 2.36-2.92 4.72-5.83 7.07-8.75 2.08-2.58 4.16-5.16 6.2-7.77.56-.72 1.1-1.19 2.11-1.18 5.32.05 10.64.02 16.23.02-1.24 2.18-2.86 3.77-4.28 5.5-3.48 4.23-6.96 8.46-10.56 12.58-.98 1.13-.92 1.75 0 2.83 5.53 6.45 10.98 12.97 16.45 19.47.26.27.5.61 1.04 1.33zM338.738 176.901c5.81-6.04 12.32-7.83 19.77-6.07 5.06 1.2 7.93 4.66 9.27 9.55.59 2.17.78 4.39.78 6.63.01 7.92-.03 15.85.04 23.77.01 1.44-.27 2.01-1.87 1.96-3.67-.13-7.35-.14-11.02.01-1.73.07-2.01-.58-1.99-2.1.07-6.63.04-13.25.03-19.88 0-.94-.01-1.87-.09-2.81-.52-5.95-5.42-8.33-10.33-4.87-2.88 2.03-4.89 4.52-4.68 8.58.33 6.39.05 12.82.11 19.23.01 1.36-.29 1.89-1.78 1.85-3.81-.11-7.64-.15-11.45.01-1.76.07-1.61-.85-1.61-1.97.01-10.66.01-21.32.01-31.98 0-2.16.03-4.32-.03-6.48-.02-1 .28-1.39 1.35-1.37 4.03.05 8.07.05 12.1-.01 1.21-.02 1.46.49 1.4 1.54-.07 1.25-.01 2.52-.01 4.41zM81.958 170.231c3.21.03 9.12 1.17 13.91 5.38 6.86 6.03 8.14 13.86 6.16 22.29-1.89 8.06-7.45 12.75-15.35 14.66-5.99 1.46-11.99 1.33-17.87-.69-7.63-2.61-12.12-7.95-13.52-15.87-1.6-9.07 1.76-17.57 8.65-21.96 4.03-2.57 8.94-3.82 18.02-3.81zm5.29 21.68c.06-2.26-.28-4.45-1.29-6.5-1.42-2.91-3.92-4.18-7-4.2-3.16-.02-5.79 1.19-7.17 4.25-1.78 3.93-1.77 7.98-.31 11.98 1.24 3.41 3.83 5.01 7.53 4.97 3.63-.04 6.11-1.78 7.38-5.21.63-1.71.93-3.47.86-5.29z"/><path fill="#FBFBFB" d="M218.448 206.801c-3.57 3.61-7.27 5.95-11.91 6.5-3.19.38-6.33.25-9.37-.91-5.45-2.08-7.9-6.51-8.29-11.89-.67-9.42-.16-18.88-.26-28.32-.01-.94.33-1.24 1.26-1.23 4.04.04 8.07.08 12.11-.02 1.46-.03 1.41.75 1.41 1.75-.02 6.85-.03 13.7-.02 20.54 0 1.36.01 2.72.36 4.07 1.05 4.04 4.37 5.76 8.31 4.25 3.89-1.49 6.39-5.1 6.38-9.23 0-6.49.04-12.98-.04-19.46-.02-1.47.33-1.99 1.89-1.94 3.74.12 7.5.09 11.24.02 1.27-.02 1.74.27 1.73 1.66-.05 12.83-.04 25.66 0 38.49 0 1.19-.29 1.65-1.56 1.63-3.96-.07-7.93-.07-11.89.01-1.23.02-1.45-.45-1.38-1.51.09-1.27.03-2.56.03-4.41zM320.678 199.921c0 2.4-.16 4.51.05 6.57.2 1.99-.55 2.99-2.34 3.68-8.91 3.46-17.99 4.68-27.24 1.71-9.83-3.16-14.61-11.95-13.94-21.88.83-12.34 9.35-18.62 20.52-19.67 4.06-.38 8.07-.11 11.89 1.49 7.5 3.14 11.01 9.13 11.93 16.9.18 1.5.08 3.03.23 4.53.16 1.61-.27 2.2-2.08 2.17-8.43-.12-16.86-.05-25.29-.06-2.17 0-2.32.17-1.35 2.12 2.09 4.21 5.71 6.19 10.24 6.49 5.06.34 9.84-1.03 14.5-2.87.84-.33 1.69-.69 2.88-1.18zm-20.77-11.84v.02c2.15 0 4.31-.07 6.45.03 1.31.06 1.5-.45 1.41-1.62-.34-4.35-3.3-7.23-7.56-7.22-4.44.01-7.94 3.22-8.21 7.47-.06.99.08 1.41 1.23 1.36 2.23-.12 4.46-.04 6.68-.04zM135.918 183.741c-3.01-1.65-5.68-3.21-8.77-3.79-1.65-.31-3.3-.41-4.94-.16-1.36.2-2.45.93-2.77 2.37-.33 1.48.63 2.31 1.78 2.86 1.81.88 3.66 1.66 5.51 2.46 1.79.77 3.53 1.6 5.2 2.6 4.6 2.77 6.79 6.76 6.08 12.13-.75 5.69-4.34 8.96-9.65 10.37-7.62 2.02-14.99.57-22.23-2.05-.82-.3-.88-.8-.88-1.48.01-2.95 0-5.9 0-8.9.96-.25 1.51.45 2.15.79 3.33 1.81 6.79 3.18 10.66 3.09.93-.02 1.87-.16 2.77-.39 1.15-.29 2.2-.83 2.44-2.16.26-1.42-.6-2.31-1.66-3.02-2.05-1.36-4.34-2.26-6.58-3.22-1.79-.77-3.51-1.67-5.07-2.84-7.81-5.85-7.01-15.98 1.81-20.1 7.85-3.67 15.72-2.36 23.43.88.83.35.73.95.73 1.58-.01 2.89-.01 5.76-.01 8.98zM273.808 184.341c0 8.79-.04 17.57.03 26.36.01 1.58-.31 2.12-2 2.05-3.67-.15-7.34-.1-11.01-.02-1.34.03-1.88-.22-1.87-1.73.05-17.86.05-35.72.01-53.58 0-1.22.32-1.61 1.56-1.59 3.89.07 7.78.08 11.66 0 1.37-.03 1.66.44 1.65 1.73-.06 8.92-.03 17.85-.03 26.78z"/><path fill="#F8DF21" d="M192.718 265.311c-3.39 0-6.77.06-10.16-.03-1.44-.04-1.94.37-1.66 1.85.56 2.96 1.81 5.39 4.92 6.21 3.47.92 6.9.66 9.32-2.25 1.14-1.37 2.19-1.84 3.79-1.7.64.06 1.3 0 1.94.01 3.96.07 4.04-.53 2.08 3.39-2.25 4.51-6.04 7.05-11.03 7.7-4.07.53-8.06.24-11.79-1.68-6.44-3.33-9.83-11.17-8.33-19.24 1.93-10.37 11.33-16.37 21.41-13.67 7.35 1.97 13.16 11.05 11.86 18.43-.19 1.08-.84.98-1.55.98-3.6.01-7.2.01-10.8 0zm-4.55-5.91c2.09-.01 4.17-.05 6.26.01 1.23.03 1.26-.52.96-1.48-.93-3.02-2.89-4.8-6-5.52-3.2-.74-7.71 1.93-8.43 5.13-.31 1.38.08 1.97 1.59 1.88 1.87-.1 3.75-.02 5.62-.02zM295.128 269.411c-1.82 6.85-6.35 10.62-13.35 11.2-7.04.58-13.17-1.27-16.76-7.79-3.72-6.75-3.59-13.75.64-20.29 3.88-6 11.36-8.51 18.46-6.65 6.63 1.74 11.14 7.5 11.83 15.11.39 4.31.39 4.31-3.95 4.32-6.12 0-12.24.03-18.36-.03-1.51-.01-1.96.32-1.69 1.96.52 3.16 2.02 5.38 5.16 6.16 3.49.87 6.87.48 9.25-2.47 1.02-1.27 1.99-1.6 3.44-1.53 1.72.07 3.44.01 5.33.01zm-15.66-17.09c-3.93.01-6.62 2.08-7.46 5.57-.29 1.2.02 1.53 1.19 1.52 4.03-.04 8.06-.05 12.09 0 1.27.02 1.39-.47 1.13-1.57-.86-3.59-3.25-5.52-6.95-5.52zM112.978 250.591c3.24-4.32 7.53-5.68 12.6-5.13 5.4.59 8.47 3.39 9.48 8.75.52 2.79.41 5.6.41 8.41.01 5.12-.03 10.23.03 15.35.02 1.35-.32 1.97-1.81 1.88-1.94-.12-3.89-.09-5.83 0-1.33.06-1.72-.4-1.71-1.73.06-5.62.03-11.24.02-16.86 0-.94-.01-1.88-.1-2.81-.35-3.75-2.09-5.62-5.4-5.87-3.59-.27-6.17 1.56-7.04 5.04-.57 2.26-.48 4.58-.48 6.88 0 4.47-.06 8.94.05 13.4.04 1.54-.45 2.03-1.95 1.94-1.94-.11-3.89-.07-5.84-.01-1.1.04-1.51-.3-1.5-1.45.04-10.16.04-20.32 0-30.48 0-1.17.3-1.77 1.57-1.65.71.07 1.44 0 2.16.01 1.51.02 3.22-.37 4.48.2 1.41.64.08 2.62.86 4.13zM327.938 275.261c-3.66 4.94-8.32 6.08-13.66 5.22-4.16-.67-6.95-2.89-8.15-7.03-.59-2.04-.72-4.11-.73-6.2-.02-6.27.04-12.54-.04-18.81-.02-1.61.3-2.38 2.1-2.22 1.72.16 3.46.11 5.18.01 1.48-.09 2 .38 1.97 1.92-.09 5.4-.03 10.81-.03 16.22 0 1.01-.02 2.02.08 3.02.39 3.95 2.02 5.81 5.21 6.03 4.15.28 6.44-1.39 7.38-5.33.34-1.42.38-2.85.38-4.29 0-5.19.04-10.38-.03-15.57-.02-1.44.3-2.11 1.89-2 1.94.13 3.89.08 5.84.02 1.1-.04 1.52.31 1.52 1.46-.04 10.23-.04 20.47-.01 30.7 0 1.2-.51 1.48-1.56 1.42-1.01-.06-2.02-.01-3.03-.01-4.06-.01-4.06-.01-4.31-4.56z"/><path fill="#FBFBFB" d="M253.148 191.801c0 6.34-.04 12.68.03 19.01.02 1.51-.39 1.98-1.92 1.93-3.74-.11-7.49-.09-11.23-.01-1.26.02-1.74-.21-1.74-1.62.06-12.89.05-25.78.02-38.68 0-1.12.32-1.51 1.46-1.5 3.96.06 7.92.1 11.88.01 1.31-.03 1.53.45 1.52 1.62-.04 6.42-.02 12.83-.02 19.24z"/><path fill="#F8DF21" d="M148.838 263.431c0-3.1-.05-6.2.03-9.29.03-1.28-.3-1.76-1.67-1.77-3.97-.03-3.88-.09-3.98-4.15-.04-1.67.49-2.06 2.08-2.01 3.56.1 3.56.02 3.54-3.66-.01-1.66.06-3.32-.01-4.97-.05-1.14.37-1.52 1.49-1.47 1.94.07 3.89.07 5.83 0 1.37-.05 1.96.41 1.9 1.86-.09 2.3.01 4.61-.04 6.91-.02 1.02.33 1.42 1.37 1.39 1.22-.04 2.45.17 3.66.08 1.43-.1 1.82.42 1.82 1.82-.01 4.24.05 4.37-4.15 4.19-2.2-.1-2.82.52-2.73 2.73.19 4.53.05 9.07.07 13.61.02 3.56.67 4.37 4.14 4.11 2.23-.17 2.78.43 2.69 2.62-.18 4.77-.05 4.78-4.94 4.78h-1.08c-8.82-.11-10.42-3.74-10.05-10.08.14-2.23.03-4.46.03-6.7zM223.058 251.891c1.43-.36 1.72-1.55 2.32-2.38 2.24-3.11 5.37-4.14 9-4.13.99 0 1.63.3 1.59 1.49-.07 2.02-.05 4.04-.01 6.05.02.96-.32 1.33-1.26 1.13-.28-.06-.57-.05-.86-.06-6.61-.28-10.04 2.88-10.22 9.64-.13 4.75-.08 9.51-.01 14.27.02 1.43-.27 2.08-1.88 1.96-2.01-.15-4.03-.07-6.05-.02-1.03.03-1.38-.33-1.38-1.37.03-10.31.03-20.61-.01-30.92 0-1.09.45-1.36 1.42-1.34 1.95.04 3.89.08 5.84-.01 1.29-.06 1.61.5 1.54 1.66-.09 1.31-.03 2.61-.03 4.03zM356.578 252.321c2.55-4.23 5.68-6.6 10.15-6.94 1.92-.15 3.02.28 2.74 2.55-.19 1.49-.09 3.02-.01 4.53.07 1.29-.25 1.91-1.69 1.6-.76-.16-1.58-.12-2.37-.09-4.33.21-7.12 2.57-7.96 6.83-.9 4.57-.32 9.2-.4 13.8-.1 5.21-.03 5.21-5.33 5.21-3.89 0-3.89 0-3.88-3.79 0-9.22.05-18.44-.04-27.66-.02-1.73.48-2.28 2.17-2.13 1.65.14 3.32.12 4.97.03 1.35-.08 1.79.43 1.68 1.73-.11 1.21-.03 2.44-.03 4.33zM253.028 263.171c0 4.97-.05 9.95.03 14.92.02 1.31-.28 1.87-1.64 1.74-2.49-.23-5.7 1.04-7.29-.51-1.37-1.34-.36-4.53-.37-6.9-.03-8 .06-16-.04-24-.02-1.84.54-2.38 2.31-2.22 1.72.16 3.46.12 5.18.01 1.43-.09 1.84.39 1.82 1.82-.09 5.04-.03 10.09-.03 15.14h.03zM92.728 263.171c0 4.9-.05 9.8.03 14.69.02 1.46-.31 2.09-1.89 1.99-1.94-.13-3.89-.08-5.83-.02-1.11.03-1.51-.33-1.5-1.48.03-10.16.03-20.31-.01-30.47 0-1.17.3-1.71 1.57-1.65 2.44.12 5.54-.76 7.13.43 1.57 1.17.41 4.44.48 6.79.09 3.24.02 6.48.02 9.72z"/><path fill="#FBFBFB" d="M253.788 160.231c-.01 4.52-3.56 8.14-8.01 8.16-4.48.01-8.13-3.57-8.16-8.02-.03-4.43 3.66-8.19 8.03-8.2 4.49-.01 8.15 3.61 8.14 8.06z"/><path fill="#F8DF21" d="M248.498 241.031c-4.79 0-4.65 0-4.8-4.87-.07-2.33.69-3.01 2.88-2.76 1.49.17 3.02.11 4.52 0 1.45-.1 2.12.32 1.96 1.9-.13 1.28-.15 2.6-.01 3.87.18 1.62-.52 2.02-1.97 1.87-.85-.08-1.72-.01-2.58-.01zM88.118 241.031c-4.56.01-4.57.01-4.56-4.63.01-3.42-.39-2.93 2.99-2.97 1.51-.02 3.03.08 4.53-.03 1.39-.11 1.82.47 1.66 1.74-.05.43-.01.86-.01 1.29 0 4.59 0 4.59-4.61 4.6z"/></svg>